<!DOCTYPE svg PUBLIC "-//W3C//DTD SVG 1.1//EN" "http://www.w3.org/Graphics/SVG/1.1/DTD/svg11.dtd">
<!-- Generated by graphviz version 12.0.0 (0)
 --><!-- Title: slurm_decision_flow Pages: 1 --><svg xmlns="http://www.w3.org/2000/svg" xmlns:xlink="http://www.w3.org/1999/xlink" width="100%" height="100%" viewBox="0.00 0.00 618.35 682.75">
<g id="graph0" class="graph" transform="scale(1 1) rotate(0) translate(4 678.75)">
<polygon fill="white" stroke="none" points="-4,4 -4,-678.75 614.35,-678.75 614.35,4 -4,4"/>
<text text-anchor="middle" x="305.18" y="-647.95" font-family="Helvetica,sans-Serif" font-size="24.00">Slurm Directives: Think Outside &#8594; In</text>
<!-- account -->
<g id="node1" class="node">
<path fill="#d9d9d9" stroke="black" d="M579.98,-637.5C579.98,-637.5 388.38,-637.5 388.38,-637.5 382.38,-637.5 376.38,-631.5 376.38,-625.5 376.38,-625.5 376.38,-573.1 376.38,-573.1 376.38,-567.1 382.38,-561.1 388.38,-561.1 388.38,-561.1 579.98,-561.1 579.98,-561.1 585.98,-561.1 591.98,-567.1 591.98,-573.1 591.98,-573.1 591.98,-625.5 591.98,-625.5 591.98,-631.5 585.98,-637.5 579.98,-637.5"/>
<text text-anchor="start" x="449.68" y="-614" font-family="Helvetica,sans-Serif" font-weight="bold" font-size="14.00">1. Account</text>
<text text-anchor="start" x="391.18" y="-592" font-family="Helvetica,sans-Serif" font-size="14.00">Which project pays for the job?</text>
<text text-anchor="start" x="438.05" y="-573.85" font-family="Helvetica,sans-Serif" font-size="11.00">--account=&lt;name&gt;</text>
</g>
<!-- partition -->
<g id="node2" class="node">
<path fill="#ff6b6b" stroke="black" d="M598.35,-511.1C598.35,-511.1 370,-511.1 370,-511.1 364,-511.1 358,-505.1 358,-499.1 358,-499.1 358,-446.7 358,-446.7 358,-440.7 364,-434.7 370,-434.7 370,-434.7 598.35,-434.7 598.35,-434.7 604.35,-434.7 610.35,-440.7 610.35,-446.7 610.35,-446.7 610.35,-499.1 610.35,-499.1 610.35,-505.1 604.35,-511.1 598.35,-511.1"/>
<text text-anchor="start" x="449.3" y="-487.6" font-family="Helvetica,sans-Serif" font-weight="bold" font-size="14.00">2. Partition</text>
<text text-anchor="start" x="372.8" y="-465.6" font-family="Helvetica,sans-Serif" font-size="14.00">Which cluster or queue should I use?</text>
<text text-anchor="start" x="437.68" y="-447.45" font-family="Helvetica,sans-Serif" font-size="11.00">--partition=&lt;name&gt;</text>
</g>
<!-- account&#45;&gt;partition -->
<g id="edge1" class="edge">
<path fill="none" stroke="black" stroke-width="2" d="M484.18,-560.69C484.18,-560.69 484.18,-524.3 484.18,-524.3"/>
<polygon fill="black" stroke="black" stroke-width="2" points="487.68,-524.3 484.18,-514.3 480.68,-524.3 487.68,-524.3"/>
</g>
<!-- qos_time -->
<g id="node3" class="node">
<path fill="#22b8cf" stroke="black" d="M596.85,-384.7C596.85,-384.7 371.5,-384.7 371.5,-384.7 365.5,-384.7 359.5,-378.7 359.5,-372.7 359.5,-372.7 359.5,-302.3 359.5,-302.3 359.5,-296.3 365.5,-290.3 371.5,-290.3 371.5,-290.3 596.85,-290.3 596.85,-290.3 602.85,-290.3 608.85,-296.3 608.85,-302.3 608.85,-302.3 608.85,-372.7 608.85,-372.7 608.85,-378.7 602.85,-384.7 596.85,-384.7"/>
<text text-anchor="start" x="418.55" y="-361.2" font-family="Helvetica,sans-Serif" font-weight="bold" font-size="14.00">3. Scheduling Policy</text>
<text text-anchor="start" x="374.3" y="-339.2" font-family="Helvetica,sans-Serif" font-size="14.00">What priority and runtime do I need?</text>
<text text-anchor="start" x="448.18" y="-321.05" font-family="Helvetica,sans-Serif" font-size="11.00">--qos=&lt;name&gt;</text>
<text text-anchor="start" x="439.18" y="-303.05" font-family="Helvetica,sans-Serif" font-size="11.00">--time=HH:MM:SS</text>
</g>
<!-- partition&#45;&gt;qos_time -->
<g id="edge2" class="edge">
<path fill="none" stroke="black" stroke-width="2" d="M484.18,-434.46C484.18,-434.46 484.18,-397.73 484.18,-397.73"/>
<polygon fill="black" stroke="black" stroke-width="2" points="487.68,-397.73 484.18,-387.73 480.68,-397.73 487.68,-397.73"/>
</g>
<!-- resources -->
<g id="node4" class="node">
<path fill="#51cf66" stroke="black" d="M596.48,-240.3C596.48,-240.3 371.88,-240.3 371.88,-240.3 365.88,-240.3 359.88,-234.3 359.88,-228.3 359.88,-228.3 359.88,-121.9 359.88,-121.9 359.88,-115.9 365.88,-109.9 371.88,-109.9 371.88,-109.9 596.48,-109.9 596.48,-109.9 602.48,-109.9 608.48,-115.9 608.48,-121.9 608.48,-121.9 608.48,-228.3 608.48,-228.3 608.48,-234.3 602.48,-240.3 596.48,-240.3"/>
<text text-anchor="start" x="442.18" y="-216.8" font-family="Helvetica,sans-Serif" font-weight="bold" font-size="14.00">4. Resources</text>
<text text-anchor="start" x="374.68" y="-194.8" font-family="Helvetica,sans-Serif" font-size="14.00">What compute resources do I need?</text>
<text text-anchor="start" x="465.8" y="-176.65" font-family="Helvetica,sans-Serif" font-size="11.00">--nodes</text>
<text text-anchor="start" x="465.05" y="-158.65" font-family="Helvetica,sans-Serif" font-size="11.00">--ntasks</text>
<text text-anchor="start" x="447.8" y="-140.65" font-family="Helvetica,sans-Serif" font-size="11.00">--cpus-per-task</text>
<text text-anchor="start" x="469.93" y="-122.65" font-family="Helvetica,sans-Serif" font-size="11.00">--gres</text>
</g>
<!-- qos_time&#45;&gt;resources -->
<g id="edge3" class="edge">
<path fill="none" stroke="black" stroke-width="2" d="M484.18,-290.09C484.18,-290.09 484.18,-253.7 484.18,-253.7"/>
<polygon fill="black" stroke="black" stroke-width="2" points="487.68,-253.7 484.18,-243.7 480.68,-253.7 487.68,-253.7"/>
</g>
<!-- submit -->
<g id="node5" class="node">
<path fill="#f8f9fa" stroke="black" d="M540.6,-59.9C540.6,-59.9 427.75,-59.9 427.75,-59.9 421.75,-59.9 415.75,-53.9 415.75,-47.9 415.75,-47.9 415.75,-12 415.75,-12 415.75,-6 421.75,0 427.75,0 427.75,0 540.6,0 540.6,0 546.6,0 552.6,-6 552.6,-12 552.6,-12 552.6,-47.9 552.6,-47.9 552.6,-53.9 546.6,-59.9 540.6,-59.9"/>
<text text-anchor="start" x="460.93" y="-36.4" font-family="Helvetica,sans-Serif" font-weight="bold" font-size="14.00">Submit</text>
<text text-anchor="start" x="430.55" y="-14.4" font-family="Courier,monospace" font-size="14.00">sbatch job.sh</text>
</g>
<!-- resources&#45;&gt;submit -->
<g id="edge4" class="edge">
<path fill="none" stroke="black" stroke-width="2" d="M484.18,-109.74C484.18,-109.74 484.18,-73.18 484.18,-73.18"/>
<polygon fill="black" stroke="black" stroke-width="2" points="487.68,-73.18 484.18,-63.18 480.68,-73.18 487.68,-73.18"/>
</g>
<!-- explanation -->
<g id="node6" class="node">
<polygon fill="#fff3bf" stroke="black" points="316.35,-490.9 0,-490.9 0,-454.9 322.35,-454.9 322.35,-484.9 316.35,-490.9"/>
<polyline fill="none" stroke="black" points="316.35,-490.9 316.35,-484.9"/>
<polyline fill="none" stroke="black" points="322.35,-484.9 316.35,-484.9"/>
<text text-anchor="middle" x="161.18" y="-467.88" font-family="Helvetica,sans-Serif" font-size="12.00">Each step narrows the choices available at the next step.</text>
</g>
<!-- explanation&#45;&gt;partition -->
<g id="edge5" class="edge">
<path fill="none" stroke="black" stroke-width="2" stroke-dasharray="5,2" d="M322.68,-472.9C334.5,-472.9 346.33,-472.9 357.91,-472.9"/>
</g>
</g>
</svg>